<svg xmlns="http://www.w3.org/2000/svg" xmlns:xlink="http://www.w3.org/1999/xlink" version="1.1" x="0px" y="0px" viewBox="0 0 100 125" enable-background="new 0 0 100 100" xml:space="preserve"><rect x="-0.333" fill="none" width="100" height="100"/><g><path d="M46.844,86.335V42.936c0-7.826-5.576-11.706-5.576-11.706c-1.239-1.043-1.196-1.833-1.196-1.833V16.278   c0.275-0.188,0.251-0.732,0.251-0.732v-2.641c0-1.174-0.913-1.109-0.913-1.109h-1.781h-0.893h-1.781c0,0-0.913-0.065-0.913,1.109   v2.641c0,0-0.024,0.544,0.251,0.732v13.118c0,0,0.043,0.79-1.196,1.833c0,0-5.576,3.88-5.576,11.706v43.399   c0,0-0.111,1.87,1.628,1.87h7.588h0.893h7.588C46.955,88.205,46.844,86.335,46.844,86.335z"/><path d="M63.307,85.597V72.532c4.797-0.885,8.51-6.941,8.51-14.281c0-0.66-0.031-1.31-0.088-1.945H52.453   c-0.059,0.636-0.088,1.285-0.088,1.945c0,7.34,3.713,13.396,8.51,14.281v13.064c-3.477,0.104-6.127,0.645-6.127,1.295   c0,0.726,3.287,1.313,7.342,1.313c4.057,0,7.344-0.588,7.344-1.313C69.434,86.241,66.783,85.7,63.307,85.597z"/></g><text x="0" y="115" fill="#000000" font-size="5px" font-weight="bold" font-family="'Helvetica Neue', Helvetica, Arial-Unicode, Arial, Sans-serif">Created by Marco Livolsi</text><text x="0" y="120" fill="#000000" font-size="5px" font-weight="bold" font-family="'Helvetica Neue', Helvetica, Arial-Unicode, Arial, Sans-serif">from the Noun Project</text></svg>