<svg xmlns="http://www.w3.org/2000/svg" xmlns:xlink="http://www.w3.org/1999/xlink" version="1.1" x="0px" y="0px" viewBox="0 0 100 125" enable-background="new 0 0 100 100" xml:space="preserve"><path d="M61.75,34.457c-0.578-1.568-2.641-2.848-3.921-4.168c-1.279-1.321-1.197-3.054-1.197-3.054l-0.151-3.851h0.048  c0,0-0.454-13.206-0.371-14.362c0.165-0.248,0.289-0.743,0.289-0.743s0-0.454,0-0.99c0-0.536-0.083-0.99-0.248-1.403  c0-1.238-1.94-0.99-1.94-0.99h-1.92h-0.096h-1.92c0,0-1.94-0.248-1.94,0.99c-0.165,0.413-0.248,0.867-0.248,1.403  c0,0.536,0,0.99,0,0.99s0.124,0.495,0.289,0.743c0.083,1.156-0.371,14.362-0.371,14.362h0.048l-0.151,3.851  c0,0,0.083,1.733-1.197,3.054c-1.279,1.321-3.343,2.6-3.921,4.168s-0.99,1.692-0.99,10.482s0.413,45.272,0.413,45.272  s0.083,1.898,2.146,2.27c1.799,0.324,3.474,0.804,7.89,0.758c4.417,0.046,6.092-0.434,7.891-0.758  c2.063-0.371,2.146-2.27,2.146-2.27s0.413-36.482,0.413-45.272C62.741,36.149,62.328,36.025,61.75,34.457z M49.25,10.75  c0-1.29,2-1.29,2,0v16.875c0,1.29-2,1.29-2,0V10.75z M48.625,91.375c0,0-1.375,0.375-3,0s-1.75-2.25-1.75-2.25V85.25V38.375  C44,35.625,47.75,33.5,47.75,33.5c1.375-0.25,1.875,1.375,1.875,1.375s0,4.699,0,11.293h-3.959v28.333h3.959  c0,6.908,0,12.206,0,13.124C49.625,90.625,48.625,91.375,48.625,91.375z"/><text x="0" y="115" fill="#000000" font-size="5px" font-weight="bold" font-family="'Helvetica Neue', Helvetica, Arial-Unicode, Arial, Sans-serif">Created by Les vieux garçons</text><text x="0" y="120" fill="#000000" font-size="5px" font-weight="bold" font-family="'Helvetica Neue', Helvetica, Arial-Unicode, Arial, Sans-serif">from the Noun Project</text></svg>